<mxfile host="app.diagrams.net" modified="2024-04-07T07:06:17.514Z" agent="Mozilla/5.0 (Macintosh; Intel Mac OS X 10_15_7) AppleWebKit/537.36 (KHTML, like Gecko) Chrome/123.0.0.0 Safari/537.36" etag="igCWzU416Jea7mwDWN8V" version="24.2.2" type="device">
  <diagram name="Page-1" id="KRk3p3T2rKnEF6rctr9i">
    <mxGraphModel dx="1468" dy="1937" grid="1" gridSize="10" guides="1" tooltips="1" connect="1" arrows="1" fold="1" page="1" pageScale="1" pageWidth="850" pageHeight="1100" math="0" shadow="0">
      <root>
        <mxCell id="0" />
        <mxCell id="1" parent="0" />
        <mxCell id="22IyeXc6PTUlrK1qvv6a-1" value="Staff" style="swimlane;fontStyle=0;childLayout=stackLayout;horizontal=1;startSize=26;fillColor=none;horizontalStack=0;resizeParent=1;resizeParentMax=0;resizeLast=0;collapsible=1;marginBottom=0;whiteSpace=wrap;html=1;" parent="1" vertex="1">
          <mxGeometry x="235" y="60" width="190" height="266" as="geometry" />
        </mxCell>
        <mxCell id="22IyeXc6PTUlrK1qvv6a-27" value="StaffID : int" style="shape=partialRectangle;connectable=0;fillColor=none;top=0;left=0;bottom=0;right=0;align=left;spacingLeft=6;overflow=hidden;whiteSpace=wrap;html=1;" parent="22IyeXc6PTUlrK1qvv6a-1" vertex="1">
          <mxGeometry y="26" width="190" height="30" as="geometry">
            <mxRectangle width="150" height="30" as="alternateBounds" />
          </mxGeometry>
        </mxCell>
        <mxCell id="22IyeXc6PTUlrK1qvv6a-20" value="StaffPassword : varchar(50)" style="shape=partialRectangle;connectable=0;fillColor=none;top=0;left=0;bottom=0;right=0;align=left;spacingLeft=6;overflow=hidden;whiteSpace=wrap;html=1;" parent="22IyeXc6PTUlrK1qvv6a-1" vertex="1">
          <mxGeometry y="56" width="190" height="30" as="geometry">
            <mxRectangle width="150" height="30" as="alternateBounds" />
          </mxGeometry>
        </mxCell>
        <mxCell id="22IyeXc6PTUlrK1qvv6a-21" value="Name : varchar(100)" style="shape=partialRectangle;connectable=0;fillColor=none;top=0;left=0;bottom=0;right=0;align=left;spacingLeft=6;overflow=hidden;whiteSpace=wrap;html=1;" parent="22IyeXc6PTUlrK1qvv6a-1" vertex="1">
          <mxGeometry y="86" width="190" height="30" as="geometry">
            <mxRectangle width="150" height="30" as="alternateBounds" />
          </mxGeometry>
        </mxCell>
        <mxCell id="22IyeXc6PTUlrK1qvv6a-22" value="Position : varchar(100)" style="shape=partialRectangle;connectable=0;fillColor=none;top=0;left=0;bottom=0;right=0;align=left;spacingLeft=6;overflow=hidden;whiteSpace=wrap;html=1;" parent="22IyeXc6PTUlrK1qvv6a-1" vertex="1">
          <mxGeometry y="116" width="190" height="30" as="geometry">
            <mxRectangle width="150" height="30" as="alternateBounds" />
          </mxGeometry>
        </mxCell>
        <mxCell id="22IyeXc6PTUlrK1qvv6a-23" value="Salary : numeric" style="shape=partialRectangle;connectable=0;fillColor=none;top=0;left=0;bottom=0;right=0;align=left;spacingLeft=6;overflow=hidden;whiteSpace=wrap;html=1;" parent="22IyeXc6PTUlrK1qvv6a-1" vertex="1">
          <mxGeometry y="146" width="190" height="30" as="geometry">
            <mxRectangle width="150" height="30" as="alternateBounds" />
          </mxGeometry>
        </mxCell>
        <mxCell id="22IyeXc6PTUlrK1qvv6a-24" value="Address : varchar(200)" style="shape=partialRectangle;connectable=0;fillColor=none;top=0;left=0;bottom=0;right=0;align=left;spacingLeft=6;overflow=hidden;whiteSpace=wrap;html=1;" parent="22IyeXc6PTUlrK1qvv6a-1" vertex="1">
          <mxGeometry y="176" width="190" height="30" as="geometry">
            <mxRectangle width="150" height="30" as="alternateBounds" />
          </mxGeometry>
        </mxCell>
        <mxCell id="22IyeXc6PTUlrK1qvv6a-25" value="Phone Number : varchar(20)" style="shape=partialRectangle;connectable=0;fillColor=none;top=0;left=0;bottom=0;right=0;align=left;spacingLeft=6;overflow=hidden;whiteSpace=wrap;html=1;" parent="22IyeXc6PTUlrK1qvv6a-1" vertex="1">
          <mxGeometry y="206" width="190" height="30" as="geometry">
            <mxRectangle width="150" height="30" as="alternateBounds" />
          </mxGeometry>
        </mxCell>
        <mxCell id="22IyeXc6PTUlrK1qvv6a-26" value="Email : varchar(100)" style="shape=partialRectangle;connectable=0;fillColor=none;top=0;left=0;bottom=0;right=0;align=left;spacingLeft=6;overflow=hidden;whiteSpace=wrap;html=1;" parent="22IyeXc6PTUlrK1qvv6a-1" vertex="1">
          <mxGeometry y="236" width="190" height="30" as="geometry">
            <mxRectangle width="150" height="30" as="alternateBounds" />
          </mxGeometry>
        </mxCell>
        <mxCell id="22IyeXc6PTUlrK1qvv6a-28" value="RoomService" style="swimlane;fontStyle=0;childLayout=stackLayout;horizontal=1;startSize=26;fillColor=none;horizontalStack=0;resizeParent=1;resizeParentMax=0;resizeLast=0;collapsible=1;marginBottom=0;whiteSpace=wrap;html=1;" parent="1" vertex="1">
          <mxGeometry x="510" y="60" width="140" height="234" as="geometry" />
        </mxCell>
        <mxCell id="22IyeXc6PTUlrK1qvv6a-29" value="RoomServiceID : int" style="text;strokeColor=none;fillColor=none;align=left;verticalAlign=top;spacingLeft=4;spacingRight=4;overflow=hidden;rotatable=0;points=[[0,0.5],[1,0.5]];portConstraint=eastwest;whiteSpace=wrap;html=1;" parent="22IyeXc6PTUlrK1qvv6a-28" vertex="1">
          <mxGeometry y="26" width="140" height="26" as="geometry" />
        </mxCell>
        <mxCell id="22IyeXc6PTUlrK1qvv6a-30" value="BookingID : int" style="text;strokeColor=none;fillColor=none;align=left;verticalAlign=top;spacingLeft=4;spacingRight=4;overflow=hidden;rotatable=0;points=[[0,0.5],[1,0.5]];portConstraint=eastwest;whiteSpace=wrap;html=1;" parent="22IyeXc6PTUlrK1qvv6a-28" vertex="1">
          <mxGeometry y="52" width="140" height="26" as="geometry" />
        </mxCell>
        <mxCell id="22IyeXc6PTUlrK1qvv6a-31" value="ServiceID : int" style="text;strokeColor=none;fillColor=none;align=left;verticalAlign=top;spacingLeft=4;spacingRight=4;overflow=hidden;rotatable=0;points=[[0,0.5],[1,0.5]];portConstraint=eastwest;whiteSpace=wrap;html=1;" parent="22IyeXc6PTUlrK1qvv6a-28" vertex="1">
          <mxGeometry y="78" width="140" height="26" as="geometry" />
        </mxCell>
        <mxCell id="22IyeXc6PTUlrK1qvv6a-36" value="StaffID : int" style="text;strokeColor=none;fillColor=none;align=left;verticalAlign=top;spacingLeft=4;spacingRight=4;overflow=hidden;rotatable=0;points=[[0,0.5],[1,0.5]];portConstraint=eastwest;whiteSpace=wrap;html=1;" parent="22IyeXc6PTUlrK1qvv6a-28" vertex="1">
          <mxGeometry y="104" width="140" height="26" as="geometry" />
        </mxCell>
        <mxCell id="22IyeXc6PTUlrK1qvv6a-35" value="RoomID : int" style="text;strokeColor=none;fillColor=none;align=left;verticalAlign=top;spacingLeft=4;spacingRight=4;overflow=hidden;rotatable=0;points=[[0,0.5],[1,0.5]];portConstraint=eastwest;whiteSpace=wrap;html=1;" parent="22IyeXc6PTUlrK1qvv6a-28" vertex="1">
          <mxGeometry y="130" width="140" height="26" as="geometry" />
        </mxCell>
        <mxCell id="22IyeXc6PTUlrK1qvv6a-34" value="Quantity : int" style="text;strokeColor=none;fillColor=none;align=left;verticalAlign=top;spacingLeft=4;spacingRight=4;overflow=hidden;rotatable=0;points=[[0,0.5],[1,0.5]];portConstraint=eastwest;whiteSpace=wrap;html=1;" parent="22IyeXc6PTUlrK1qvv6a-28" vertex="1">
          <mxGeometry y="156" width="140" height="26" as="geometry" />
        </mxCell>
        <mxCell id="22IyeXc6PTUlrK1qvv6a-33" value="Status : varchar(50)" style="text;strokeColor=none;fillColor=none;align=left;verticalAlign=top;spacingLeft=4;spacingRight=4;overflow=hidden;rotatable=0;points=[[0,0.5],[1,0.5]];portConstraint=eastwest;whiteSpace=wrap;html=1;" parent="22IyeXc6PTUlrK1qvv6a-28" vertex="1">
          <mxGeometry y="182" width="140" height="26" as="geometry" />
        </mxCell>
        <mxCell id="PLH3vyeAFV0mREEyjQB7-1" value="GuestID:int" style="text;strokeColor=none;fillColor=none;align=left;verticalAlign=top;spacingLeft=4;spacingRight=4;overflow=hidden;rotatable=0;points=[[0,0.5],[1,0.5]];portConstraint=eastwest;whiteSpace=wrap;html=1;" vertex="1" parent="22IyeXc6PTUlrK1qvv6a-28">
          <mxGeometry y="208" width="140" height="26" as="geometry" />
        </mxCell>
        <mxCell id="22IyeXc6PTUlrK1qvv6a-37" value="Service" style="swimlane;fontStyle=0;childLayout=stackLayout;horizontal=1;startSize=26;fillColor=none;horizontalStack=0;resizeParent=1;resizeParentMax=0;resizeLast=0;collapsible=1;marginBottom=0;whiteSpace=wrap;html=1;" parent="1" vertex="1">
          <mxGeometry x="760" y="60" width="150" height="130" as="geometry" />
        </mxCell>
        <mxCell id="22IyeXc6PTUlrK1qvv6a-38" value="ServiceID : int" style="text;strokeColor=none;fillColor=none;align=left;verticalAlign=top;spacingLeft=4;spacingRight=4;overflow=hidden;rotatable=0;points=[[0,0.5],[1,0.5]];portConstraint=eastwest;whiteSpace=wrap;html=1;" parent="22IyeXc6PTUlrK1qvv6a-37" vertex="1">
          <mxGeometry y="26" width="150" height="26" as="geometry" />
        </mxCell>
        <mxCell id="22IyeXc6PTUlrK1qvv6a-39" value="Name : varchar(100)" style="text;strokeColor=none;fillColor=none;align=left;verticalAlign=top;spacingLeft=4;spacingRight=4;overflow=hidden;rotatable=0;points=[[0,0.5],[1,0.5]];portConstraint=eastwest;whiteSpace=wrap;html=1;" parent="22IyeXc6PTUlrK1qvv6a-37" vertex="1">
          <mxGeometry y="52" width="150" height="26" as="geometry" />
        </mxCell>
        <mxCell id="22IyeXc6PTUlrK1qvv6a-40" value="Description : text" style="text;strokeColor=none;fillColor=none;align=left;verticalAlign=top;spacingLeft=4;spacingRight=4;overflow=hidden;rotatable=0;points=[[0,0.5],[1,0.5]];portConstraint=eastwest;whiteSpace=wrap;html=1;" parent="22IyeXc6PTUlrK1qvv6a-37" vertex="1">
          <mxGeometry y="78" width="150" height="26" as="geometry" />
        </mxCell>
        <mxCell id="22IyeXc6PTUlrK1qvv6a-41" value="Price : numeric" style="text;strokeColor=none;fillColor=none;align=left;verticalAlign=top;spacingLeft=4;spacingRight=4;overflow=hidden;rotatable=0;points=[[0,0.5],[1,0.5]];portConstraint=eastwest;whiteSpace=wrap;html=1;" parent="22IyeXc6PTUlrK1qvv6a-37" vertex="1">
          <mxGeometry y="104" width="150" height="26" as="geometry" />
        </mxCell>
        <mxCell id="22IyeXc6PTUlrK1qvv6a-78" style="edgeStyle=orthogonalEdgeStyle;rounded=0;orthogonalLoop=1;jettySize=auto;html=1;exitX=1;exitY=0.5;exitDx=0;exitDy=0;entryX=0.013;entryY=0.808;entryDx=0;entryDy=0;entryPerimeter=0;" parent="1" source="22IyeXc6PTUlrK1qvv6a-43" target="22IyeXc6PTUlrK1qvv6a-49" edge="1">
          <mxGeometry relative="1" as="geometry" />
        </mxCell>
        <mxCell id="22IyeXc6PTUlrK1qvv6a-43" value="Room" style="swimlane;fontStyle=0;childLayout=stackLayout;horizontal=1;startSize=26;fillColor=none;horizontalStack=0;resizeParent=1;resizeParentMax=0;resizeLast=0;collapsible=1;marginBottom=0;whiteSpace=wrap;html=1;" parent="1" vertex="1">
          <mxGeometry x="760" y="206" width="150" height="130" as="geometry" />
        </mxCell>
        <mxCell id="22IyeXc6PTUlrK1qvv6a-44" value="RoomID : int" style="text;strokeColor=none;fillColor=none;align=left;verticalAlign=top;spacingLeft=4;spacingRight=4;overflow=hidden;rotatable=0;points=[[0,0.5],[1,0.5]];portConstraint=eastwest;whiteSpace=wrap;html=1;" parent="22IyeXc6PTUlrK1qvv6a-43" vertex="1">
          <mxGeometry y="26" width="150" height="26" as="geometry" />
        </mxCell>
        <mxCell id="22IyeXc6PTUlrK1qvv6a-45" value="Type : varchar(50)" style="text;strokeColor=none;fillColor=none;align=left;verticalAlign=top;spacingLeft=4;spacingRight=4;overflow=hidden;rotatable=0;points=[[0,0.5],[1,0.5]];portConstraint=eastwest;whiteSpace=wrap;html=1;" parent="22IyeXc6PTUlrK1qvv6a-43" vertex="1">
          <mxGeometry y="52" width="150" height="26" as="geometry" />
        </mxCell>
        <mxCell id="22IyeXc6PTUlrK1qvv6a-46" value="Rate : numeric" style="text;strokeColor=none;fillColor=none;align=left;verticalAlign=top;spacingLeft=4;spacingRight=4;overflow=hidden;rotatable=0;points=[[0,0.5],[1,0.5]];portConstraint=eastwest;whiteSpace=wrap;html=1;" parent="22IyeXc6PTUlrK1qvv6a-43" vertex="1">
          <mxGeometry y="78" width="150" height="26" as="geometry" />
        </mxCell>
        <mxCell id="22IyeXc6PTUlrK1qvv6a-47" value="Availability : boolean" style="text;strokeColor=none;fillColor=none;align=left;verticalAlign=top;spacingLeft=4;spacingRight=4;overflow=hidden;rotatable=0;points=[[0,0.5],[1,0.5]];portConstraint=eastwest;whiteSpace=wrap;html=1;" parent="22IyeXc6PTUlrK1qvv6a-43" vertex="1">
          <mxGeometry y="104" width="150" height="26" as="geometry" />
        </mxCell>
        <mxCell id="22IyeXc6PTUlrK1qvv6a-48" value="Booking" style="swimlane;fontStyle=0;childLayout=stackLayout;horizontal=1;startSize=26;fillColor=none;horizontalStack=0;resizeParent=1;resizeParentMax=0;resizeLast=0;collapsible=1;marginBottom=0;whiteSpace=wrap;html=1;" parent="1" vertex="1">
          <mxGeometry x="1020" y="60" width="140" height="156" as="geometry" />
        </mxCell>
        <mxCell id="22IyeXc6PTUlrK1qvv6a-49" value="BookingID : int" style="text;strokeColor=none;fillColor=none;align=left;verticalAlign=top;spacingLeft=4;spacingRight=4;overflow=hidden;rotatable=0;points=[[0,0.5],[1,0.5]];portConstraint=eastwest;whiteSpace=wrap;html=1;" parent="22IyeXc6PTUlrK1qvv6a-48" vertex="1">
          <mxGeometry y="26" width="140" height="26" as="geometry" />
        </mxCell>
        <mxCell id="22IyeXc6PTUlrK1qvv6a-50" value="GuestID : int" style="text;strokeColor=none;fillColor=none;align=left;verticalAlign=top;spacingLeft=4;spacingRight=4;overflow=hidden;rotatable=0;points=[[0,0.5],[1,0.5]];portConstraint=eastwest;whiteSpace=wrap;html=1;" parent="22IyeXc6PTUlrK1qvv6a-48" vertex="1">
          <mxGeometry y="52" width="140" height="26" as="geometry" />
        </mxCell>
        <mxCell id="22IyeXc6PTUlrK1qvv6a-51" value="RoomID : int" style="text;strokeColor=none;fillColor=none;align=left;verticalAlign=top;spacingLeft=4;spacingRight=4;overflow=hidden;rotatable=0;points=[[0,0.5],[1,0.5]];portConstraint=eastwest;whiteSpace=wrap;html=1;" parent="22IyeXc6PTUlrK1qvv6a-48" vertex="1">
          <mxGeometry y="78" width="140" height="26" as="geometry" />
        </mxCell>
        <mxCell id="22IyeXc6PTUlrK1qvv6a-52" value="CheckInDate : date" style="text;strokeColor=none;fillColor=none;align=left;verticalAlign=top;spacingLeft=4;spacingRight=4;overflow=hidden;rotatable=0;points=[[0,0.5],[1,0.5]];portConstraint=eastwest;whiteSpace=wrap;html=1;" parent="22IyeXc6PTUlrK1qvv6a-48" vertex="1">
          <mxGeometry y="104" width="140" height="26" as="geometry" />
        </mxCell>
        <mxCell id="22IyeXc6PTUlrK1qvv6a-53" value="CheckOutDate : date" style="text;strokeColor=none;fillColor=none;align=left;verticalAlign=top;spacingLeft=4;spacingRight=4;overflow=hidden;rotatable=0;points=[[0,0.5],[1,0.5]];portConstraint=eastwest;whiteSpace=wrap;html=1;" parent="22IyeXc6PTUlrK1qvv6a-48" vertex="1">
          <mxGeometry y="130" width="140" height="26" as="geometry" />
        </mxCell>
        <mxCell id="22IyeXc6PTUlrK1qvv6a-82" style="edgeStyle=orthogonalEdgeStyle;rounded=0;orthogonalLoop=1;jettySize=auto;html=1;entryX=1;entryY=0.5;entryDx=0;entryDy=0;" parent="1" target="22IyeXc6PTUlrK1qvv6a-49" edge="1">
          <mxGeometry relative="1" as="geometry">
            <mxPoint x="1310" y="99" as="sourcePoint" />
          </mxGeometry>
        </mxCell>
        <mxCell id="22IyeXc6PTUlrK1qvv6a-55" value="Guest" style="swimlane;fontStyle=0;childLayout=stackLayout;horizontal=1;startSize=26;fillColor=none;horizontalStack=0;resizeParent=1;resizeParentMax=0;resizeLast=0;collapsible=1;marginBottom=0;whiteSpace=wrap;html=1;" parent="1" vertex="1">
          <mxGeometry x="1310" y="52" width="190" height="236" as="geometry" />
        </mxCell>
        <mxCell id="22IyeXc6PTUlrK1qvv6a-56" value="GuestID : int" style="shape=partialRectangle;connectable=0;fillColor=none;top=0;left=0;bottom=0;right=0;align=left;spacingLeft=6;overflow=hidden;whiteSpace=wrap;html=1;" parent="22IyeXc6PTUlrK1qvv6a-55" vertex="1">
          <mxGeometry y="26" width="190" height="30" as="geometry">
            <mxRectangle width="150" height="30" as="alternateBounds" />
          </mxGeometry>
        </mxCell>
        <mxCell id="22IyeXc6PTUlrK1qvv6a-57" value="GuestPassword : varchar(50)" style="shape=partialRectangle;connectable=0;fillColor=none;top=0;left=0;bottom=0;right=0;align=left;spacingLeft=6;overflow=hidden;whiteSpace=wrap;html=1;" parent="22IyeXc6PTUlrK1qvv6a-55" vertex="1">
          <mxGeometry y="56" width="190" height="30" as="geometry">
            <mxRectangle width="150" height="30" as="alternateBounds" />
          </mxGeometry>
        </mxCell>
        <mxCell id="22IyeXc6PTUlrK1qvv6a-58" value="Name : varchar(100)" style="shape=partialRectangle;connectable=0;fillColor=none;top=0;left=0;bottom=0;right=0;align=left;spacingLeft=6;overflow=hidden;whiteSpace=wrap;html=1;" parent="22IyeXc6PTUlrK1qvv6a-55" vertex="1">
          <mxGeometry y="86" width="190" height="30" as="geometry">
            <mxRectangle width="150" height="30" as="alternateBounds" />
          </mxGeometry>
        </mxCell>
        <mxCell id="22IyeXc6PTUlrK1qvv6a-59" value="Nationality : varchar(100)" style="shape=partialRectangle;connectable=0;fillColor=none;top=0;left=0;bottom=0;right=0;align=left;spacingLeft=6;overflow=hidden;whiteSpace=wrap;html=1;" parent="22IyeXc6PTUlrK1qvv6a-55" vertex="1">
          <mxGeometry y="116" width="190" height="30" as="geometry">
            <mxRectangle width="150" height="30" as="alternateBounds" />
          </mxGeometry>
        </mxCell>
        <mxCell id="22IyeXc6PTUlrK1qvv6a-61" value="Address : varchar(200)" style="shape=partialRectangle;connectable=0;fillColor=none;top=0;left=0;bottom=0;right=0;align=left;spacingLeft=6;overflow=hidden;whiteSpace=wrap;html=1;" parent="22IyeXc6PTUlrK1qvv6a-55" vertex="1">
          <mxGeometry y="146" width="190" height="30" as="geometry">
            <mxRectangle width="150" height="30" as="alternateBounds" />
          </mxGeometry>
        </mxCell>
        <mxCell id="22IyeXc6PTUlrK1qvv6a-62" value="Phone Number : varchar(20)" style="shape=partialRectangle;connectable=0;fillColor=none;top=0;left=0;bottom=0;right=0;align=left;spacingLeft=6;overflow=hidden;whiteSpace=wrap;html=1;" parent="22IyeXc6PTUlrK1qvv6a-55" vertex="1">
          <mxGeometry y="176" width="190" height="30" as="geometry">
            <mxRectangle width="150" height="30" as="alternateBounds" />
          </mxGeometry>
        </mxCell>
        <mxCell id="22IyeXc6PTUlrK1qvv6a-63" value="Email : varchar(100)" style="shape=partialRectangle;connectable=0;fillColor=none;top=0;left=0;bottom=0;right=0;align=left;spacingLeft=6;overflow=hidden;whiteSpace=wrap;html=1;" parent="22IyeXc6PTUlrK1qvv6a-55" vertex="1">
          <mxGeometry y="206" width="190" height="30" as="geometry">
            <mxRectangle width="150" height="30" as="alternateBounds" />
          </mxGeometry>
        </mxCell>
        <mxCell id="22IyeXc6PTUlrK1qvv6a-64" value="UML" style="text;strokeColor=none;fillColor=none;html=1;fontSize=24;fontStyle=1;verticalAlign=middle;align=center;" parent="1" vertex="1">
          <mxGeometry x="270" y="-50" width="100" height="40" as="geometry" />
        </mxCell>
        <mxCell id="22IyeXc6PTUlrK1qvv6a-70" value="" style="endArrow=none;html=1;edgeStyle=orthogonalEdgeStyle;rounded=0;entryX=0;entryY=0.5;entryDx=0;entryDy=0;" parent="1" target="22IyeXc6PTUlrK1qvv6a-31" edge="1">
          <mxGeometry relative="1" as="geometry">
            <mxPoint x="425" y="151" as="sourcePoint" />
            <mxPoint x="505" y="150" as="targetPoint" />
          </mxGeometry>
        </mxCell>
        <mxCell id="22IyeXc6PTUlrK1qvv6a-71" value="1" style="edgeLabel;resizable=0;html=1;align=left;verticalAlign=bottom;" parent="22IyeXc6PTUlrK1qvv6a-70" connectable="0" vertex="1">
          <mxGeometry x="-1" relative="1" as="geometry" />
        </mxCell>
        <mxCell id="22IyeXc6PTUlrK1qvv6a-72" value="*" style="edgeLabel;resizable=0;html=1;align=right;verticalAlign=bottom;" parent="22IyeXc6PTUlrK1qvv6a-70" connectable="0" vertex="1">
          <mxGeometry x="1" relative="1" as="geometry" />
        </mxCell>
        <mxCell id="22IyeXc6PTUlrK1qvv6a-73" style="edgeStyle=orthogonalEdgeStyle;rounded=0;orthogonalLoop=1;jettySize=auto;html=1;exitX=0;exitY=0.5;exitDx=0;exitDy=0;entryX=1;entryY=0.5;entryDx=0;entryDy=0;" parent="1" source="22IyeXc6PTUlrK1qvv6a-39" target="22IyeXc6PTUlrK1qvv6a-31" edge="1">
          <mxGeometry relative="1" as="geometry">
            <mxPoint x="660" y="160" as="targetPoint" />
            <Array as="points">
              <mxPoint x="740" y="125" />
              <mxPoint x="740" y="151" />
            </Array>
          </mxGeometry>
        </mxCell>
        <mxCell id="22IyeXc6PTUlrK1qvv6a-75" value="*" style="edgeLabel;resizable=0;html=1;align=left;verticalAlign=bottom;" parent="1" connectable="0" vertex="1">
          <mxGeometry x="660" y="160" as="geometry" />
        </mxCell>
        <mxCell id="22IyeXc6PTUlrK1qvv6a-76" style="edgeStyle=orthogonalEdgeStyle;rounded=0;orthogonalLoop=1;jettySize=auto;html=1;exitX=0;exitY=0.5;exitDx=0;exitDy=0;entryX=1;entryY=0.5;entryDx=0;entryDy=0;" parent="1" source="22IyeXc6PTUlrK1qvv6a-45" target="22IyeXc6PTUlrK1qvv6a-35" edge="1">
          <mxGeometry relative="1" as="geometry">
            <mxPoint x="670" y="200" as="targetPoint" />
            <Array as="points">
              <mxPoint x="705" y="271" />
              <mxPoint x="705" y="203" />
            </Array>
          </mxGeometry>
        </mxCell>
        <mxCell id="22IyeXc6PTUlrK1qvv6a-77" value="*" style="edgeLabel;resizable=0;html=1;align=left;verticalAlign=bottom;" parent="1" connectable="0" vertex="1">
          <mxGeometry x="660" y="206" as="geometry" />
        </mxCell>
        <mxCell id="22IyeXc6PTUlrK1qvv6a-79" value="1" style="edgeLabel;resizable=0;html=1;align=left;verticalAlign=bottom;" parent="1" connectable="0" vertex="1">
          <mxGeometry x="920" y="270" as="geometry" />
        </mxCell>
        <mxCell id="22IyeXc6PTUlrK1qvv6a-83" value="*" style="edgeLabel;resizable=0;html=1;align=left;verticalAlign=bottom;" parent="1" connectable="0" vertex="1">
          <mxGeometry x="1170" y="90" as="geometry" />
        </mxCell>
        <mxCell id="PLH3vyeAFV0mREEyjQB7-2" style="edgeStyle=orthogonalEdgeStyle;rounded=0;orthogonalLoop=1;jettySize=auto;html=1;exitX=0;exitY=0.5;exitDx=0;exitDy=0;entryX=1;entryY=0.5;entryDx=0;entryDy=0;" edge="1" parent="1" target="PLH3vyeAFV0mREEyjQB7-1">
          <mxGeometry relative="1" as="geometry">
            <mxPoint x="1310" y="110" as="sourcePoint" />
            <mxPoint x="690" y="280" as="targetPoint" />
            <Array as="points">
              <mxPoint x="1270" y="110" />
              <mxPoint x="1270" y="360" />
              <mxPoint x="690" y="360" />
              <mxPoint x="690" y="281" />
            </Array>
          </mxGeometry>
        </mxCell>
        <mxCell id="PLH3vyeAFV0mREEyjQB7-3" value="*" style="edgeLabel;resizable=0;html=1;align=right;verticalAlign=bottom;" connectable="0" vertex="1" parent="1">
          <mxGeometry x="519.7336211990305" y="169.99999999999977" as="geometry">
            <mxPoint x="141" y="109" as="offset" />
          </mxGeometry>
        </mxCell>
        <mxCell id="PLH3vyeAFV0mREEyjQB7-4" style="edgeStyle=orthogonalEdgeStyle;rounded=0;orthogonalLoop=1;jettySize=auto;html=1;exitX=0;exitY=0.5;exitDx=0;exitDy=0;entryX=1;entryY=0.5;entryDx=0;entryDy=0;" edge="1" parent="1" target="22IyeXc6PTUlrK1qvv6a-29">
          <mxGeometry relative="1" as="geometry">
            <mxPoint x="1020" y="100" as="sourcePoint" />
            <mxPoint x="670" y="110" as="targetPoint" />
            <Array as="points">
              <mxPoint x="961" y="100" />
              <mxPoint x="961" y="20" />
              <mxPoint x="730" y="20" />
              <mxPoint x="730" y="99" />
            </Array>
          </mxGeometry>
        </mxCell>
        <mxCell id="PLH3vyeAFV0mREEyjQB7-5" value="*" style="edgeLabel;resizable=0;html=1;align=left;verticalAlign=bottom;" connectable="0" vertex="1" parent="1">
          <mxGeometry x="670" y="216" as="geometry">
            <mxPoint x="-13" y="-118" as="offset" />
          </mxGeometry>
        </mxCell>
        <mxCell id="PLH3vyeAFV0mREEyjQB7-6" value="&lt;span style=&quot;color: rgb(0, 0, 0); font-family: Helvetica; font-size: 11px; font-style: normal; font-variant-ligatures: normal; font-variant-caps: normal; font-weight: 400; letter-spacing: normal; orphans: 2; text-align: left; text-indent: 0px; text-transform: none; widows: 2; word-spacing: 0px; -webkit-text-stroke-width: 0px; white-space: nowrap; background-color: rgb(255, 255, 255); text-decoration-thickness: initial; text-decoration-style: initial; text-decoration-color: initial; display: inline !important; float: none;&quot;&gt;1&lt;/span&gt;" style="text;whiteSpace=wrap;html=1;" vertex="1" parent="1">
          <mxGeometry x="1000" y="75" width="10" height="30" as="geometry" />
        </mxCell>
        <mxCell id="PLH3vyeAFV0mREEyjQB7-7" value="*" style="edgeLabel;resizable=0;html=1;align=left;verticalAlign=bottom;" connectable="0" vertex="1" parent="1">
          <mxGeometry x="1000" y="125" as="geometry" />
        </mxCell>
        <mxCell id="PLH3vyeAFV0mREEyjQB7-8" value="&lt;span style=&quot;color: rgb(0, 0, 0); font-family: Helvetica; font-size: 11px; font-style: normal; font-variant-ligatures: normal; font-variant-caps: normal; font-weight: 400; letter-spacing: normal; orphans: 2; text-align: left; text-indent: 0px; text-transform: none; widows: 2; word-spacing: 0px; -webkit-text-stroke-width: 0px; white-space: nowrap; background-color: rgb(255, 255, 255); text-decoration-thickness: initial; text-decoration-style: initial; text-decoration-color: initial; display: inline !important; float: none;&quot;&gt;1&lt;/span&gt;" style="text;whiteSpace=wrap;html=1;" vertex="1" parent="1">
          <mxGeometry x="1290" y="110" width="10" height="30" as="geometry" />
        </mxCell>
        <mxCell id="PLH3vyeAFV0mREEyjQB7-9" value="&lt;span style=&quot;color: rgb(0, 0, 0); font-family: Helvetica; font-size: 11px; font-style: normal; font-variant-ligatures: normal; font-variant-caps: normal; font-weight: 400; letter-spacing: normal; orphans: 2; text-align: left; text-indent: 0px; text-transform: none; widows: 2; word-spacing: 0px; -webkit-text-stroke-width: 0px; white-space: nowrap; background-color: rgb(255, 255, 255); text-decoration-thickness: initial; text-decoration-style: initial; text-decoration-color: initial; display: inline !important; float: none;&quot;&gt;1&lt;/span&gt;" style="text;whiteSpace=wrap;html=1;" vertex="1" parent="1">
          <mxGeometry x="1290" y="70" width="10" height="30" as="geometry" />
        </mxCell>
        <mxCell id="PLH3vyeAFV0mREEyjQB7-10" value="1" style="edgeLabel;resizable=0;html=1;align=left;verticalAlign=bottom;" connectable="0" vertex="1" parent="1">
          <mxGeometry x="930" y="271" as="geometry">
            <mxPoint x="-184" y="-153" as="offset" />
          </mxGeometry>
        </mxCell>
        <mxCell id="PLH3vyeAFV0mREEyjQB7-11" value="1" style="edgeLabel;resizable=0;html=1;align=left;verticalAlign=bottom;" connectable="0" vertex="1" parent="1">
          <mxGeometry x="930" y="420" as="geometry">
            <mxPoint x="-184" y="-153" as="offset" />
          </mxGeometry>
        </mxCell>
      </root>
    </mxGraphModel>
  </diagram>
</mxfile>
